<?xml version="1.0" standalone="no"?>
<svg viewBox="0 0 200 200" xmlns="http://www.w3.org/2000/svg">
  <path fill="#696CFF" d="M41.8,-65.5C55.1,-64.7,67.7,-55.5,69.6,-43.2C71.6,-30.9,63,-15.4,57.6,-3.1C52.3,9.3,50.2,18.5,46.7,28.2C43.2,37.8,38.3,47.9,30.3,53.2C22.3,58.5,11.2,59,-0.1,59.1C-11.4,59.3,-22.8,59.2,-35.6,56.7C-48.4,54.2,-62.6,49.3,-69.7,39.4C-76.8,29.6,-76.8,14.8,-74.9,1.1C-73.1,-12.6,-69.3,-25.2,-60.7,-32.5C-52.1,-39.8,-38.7,-41.8,-27.8,-44.1C-16.9,-46.3,-8.4,-48.9,2.9,-53.9C14.2,-58.9,28.4,-66.4,41.8,-65.5Z" transform="translate(100 100)" />
</svg>
