<svg xmlns="http://www.w3.org/2000/svg" width="959" height="686"><path fill="#f2f2f2" fill-rule="evenodd" d="M753.339 125.305c-6.689 5.057-12.021 9.338-11.849 9.512 1.465 1.492 27.044-16.144 25.96-17.898-.313-.506-.879-.894-1.259-.864-.38.03-6.163 4.193-12.852 9.25M730 139.131c-1.375.552-12.4 3.703-24.5 7.003-28.213 7.694-39.831 12.533-50.865 21.186-3.849 3.018-12.03 12.618-11.341 13.307.503.504 15.181-4.574 27.432-9.489 19.055-7.645 45.062-20.742 60.22-30.327 4.391-2.776 3.91-3.63-.946-1.68m-105.5 47.52c-17.954 5.251-43.797 10.565-63 12.953-7.7.958-14.074 1.776-14.164 1.819-.09.042.658 4.577 1.664 10.077 1.006 5.5 2.152 15.271 2.548 21.714l.719 11.714 4.617 1.524c30.452 10.055 55.115-6.262 78.902-52.202 3.709-7.163 5.797-12.195 5.029-12.118-.723.072-8.065 2.106-16.315 4.519m-432.936 92.246c-.343.554.975 3.103 2.93 5.663 4.934 6.463 10.203 17.808 18.317 39.44 8.841 23.567 11.13 28.639 16.726 37.056 18.408 27.689 47.479 29.614 96.313 6.377l11.65-5.543-12.5-4.78c-17.788-6.801-23.481-9.308-41.322-18.196-32.848-16.364-53.676-30.157-88.666-58.72-1.681-1.372-3.077-1.898-3.448-1.297m151.936 80.81-6 1.638 3.236 1.325c13.218 5.41 50.504 14.564 72.392 17.772 21.98 3.222 21.172 1.514-4.127-8.723-26.971-10.913-33.914-12.834-48.001-13.284-8.495-.271-13.068.061-17.5 1.272m306 210.247c-3.85 1.015-8.855 2.591-11.122 3.503-3.804 1.53-4.17 2.012-4.75 6.24-.345 2.52-.667 7.332-.715 10.693l-.086 6.11-3.822-8-3.821-8-7.377 7.5c-8.231 8.368-14.434 19.067-17.394 30-1.726 6.378-2.663 27.081-1.288 28.458.344.344 3.494-1.143 7-3.306 3.506-2.163 8.15-4.243 10.32-4.624 8.516-1.493 18.75-8.59 24.555-17.028 2.8-4.069 5.941-12.541 11.884-32.049 2.099-6.892 4.343-11.839 7.143-15.75L664.11 568l-3.805.055c-2.093.03-6.955.885-10.805 1.899"/><path fill="#e6e6e7" fill-rule="evenodd" d="M398.107 38.85C396.684 40.848 396 43.333 396 46.5c0 6.742 2.99 10.713 7.757 10.304 4.836-.415 7.41-3.994 7.41-10.304 0-6.31-2.574-9.889-7.41-10.304-2.961-.254-3.89.182-5.65 2.654m-123 141c-1.423 1.998-2.107 4.483-2.107 7.65 0 6.742 2.99 10.713 7.757 10.304 4.836-.415 7.41-3.994 7.41-10.304 0-6.31-2.574-9.889-7.41-10.304-2.961-.254-3.89.182-5.65 2.654M465 256.738c0 2.395 1.562 4.333 8.742 10.839 4.807 4.358 13.409 12.47 19.113 18.028 9.098 8.863 10.281 10.398 9.63 12.5-.785 2.535-2.655 4.684-22.182 25.506-15.573 16.605-16.507 17.816-16.12 20.9.277 2.208 3.017-.379 21.817-20.596 11.825-12.716 21.878-23.782 22.34-24.59 1.525-2.667-.214-5.902-6.126-11.399a16846.477 16846.477 0 0 1-18.275-17.04c-6.841-6.388-13.901-12.841-15.689-14.339l-3.25-2.725v2.916m-57.75 39.995c-10.102 10.834-15.251 17.1-15.252 18.561-.003 2.254 3.024 5.364 25.845 26.564 10.689 9.93 11.125 10.22 10.55 7-.44-2.46-2.722-5.459-8.531-11.215-10.413-10.316-12.316-13.969-12.316-23.643 0-9.109 2.096-13.676 10.149-22.119 4.428-4.642 5.385-6.249 5.125-8.606-.301-2.728-1.209-1.943-15.57 13.458m57.75-7.972v7.901l5.403 5.157c7.22 6.891 9.751 7.813 13.23 4.821 4.03-3.467 2.736-5.945-8.592-16.46L465 280.861v7.9m165.107-2.911c-1.423 1.998-2.107 4.483-2.107 7.65 0 6.742 2.99 10.713 7.757 10.304 4.836-.415 7.41-3.994 7.41-10.304 0-6.31-2.574-9.889-7.41-10.304-2.961-.254-3.89.182-5.65 2.654m-208.436 15.565c-.299.779-.161 2.691.307 4.25.788 2.628.856 2.524.936-1.415.089-4.392-.303-5.285-1.243-2.835m43.32 11.3c-.004 3.182-.171 8.035-.37 10.785-.199 2.75-.168 3.538.069 1.75.344-2.593.893-3.25 2.715-3.25 2.754 0 5.595-2.892 5.595-5.694 0-2.351-3.273-6.847-6.078-8.348-1.793-.959-1.923-.64-1.931 4.757"/><path fill="#ccc" fill-rule="evenodd" d="M479.5 267c2.709 2.75 5.15 5 5.425 5 .275 0-1.716-2.25-4.425-5-2.709-2.75-5.15-5-5.425-5-.275 0 1.716 2.25 4.425 5m-56.172 35.5c.005 3.85.185 5.302.402 3.228.216-2.075.213-5.225-.008-7-.221-1.776-.398-.078-.394 3.772m41.064 6.5c0 7.425.157 10.462.35 6.75.192-3.712.192-9.788 0-13.5-.193-3.712-.35-.675-.35 6.75M276.306 646.648c-.656.265-.946 1.127-.643 1.917.837 2.18 419.842 2.167 420.679-.014.324-.845-.152-1.645-1.143-1.921-2.242-.623-417.347-.605-418.893.018"/><path fill="#fff" fill-rule="evenodd" d="m465.015 270.086.014 10.414 10.486 9.83c8.638 8.099 10.485 10.341 10.485 12.727 0 3.528-3.843 6.473-7.243 5.551-1.241-.337-4.732-2.953-7.757-5.813l-5.5-5.201-.315 3.78c-.276 3.308.254 4.388 4.25 8.66 2.511 2.684 4.565 5.525 4.565 6.312 0 2.605-3.527 5.904-6.31 5.904-2.497 0-2.69.305-2.69 4.235 0 2.33-.265 6.436-.589 9.125l-.589 4.89 5.276-5.5c2.902-3.025 8.005-8.426 11.339-12.003a5645.766 5645.766 0 0 1 13.813-14.739c9.753-10.365 9.965-11.956 2.5-18.792a1784.048 1784.048 0 0 1-24.5-22.892l-7.25-6.902.015 10.414m-47.515 22.44c-6.51 7.531-6.975 8.24-8.525 12.974-3.599 10.996-.156 21.367 10.308 31.055 3.854 3.569 7.219 6.276 7.478 6.017.259-.259-.244-5.556-1.117-11.772-.874-6.215-1.858-13.88-2.186-17.034-.329-3.154-1.016-5.993-1.528-6.309-1.249-.772-1.18-5.121.119-7.549.577-1.078.915-4.482.75-7.564l-.299-5.603-5 5.785m50.528 73.224c-2.754 3.712-5.292 7.786-5.639 9.052-.348 1.266.159 6.504 1.126 11.639 2.024 10.755 1.573 13.74-2.678 17.711L457.788 407l2.856-.004c1.571-.002 4.206-.833 5.856-1.846 2.802-1.722 24.5-31.723 24.5-33.876 0-.978-15.871-12.285-17.232-12.278-.403.002-2.986 3.042-5.74 6.754m6.334 4.75c-.972 2.531.453 4.665 2.884 4.32 1.615-.229 2.344-1.099 2.57-3.07.274-2.375-.037-2.75-2.281-2.75-1.429 0-2.857.675-3.173 1.5m98.657 18.514c-9.149 1.595-16.653 3.387-16.866 4.027-.211.634-1.637 2.579-3.167 4.323l-2.784 3.17 3.246 19.012c1.785 10.458 3.726 19.9 4.313 20.984 1.63 3.011 6.415 7.22 9.554 8.406 1.548.585 4.648 1.064 6.889 1.064 4.213 0 27.529-3.717 28.993-4.622 1.198-.74.229-8.924-4.114-34.746-2.473-14.701-4.336-23.178-5.215-23.735-1.857-1.176-2.104-1.151-20.849 2.117m-1.519 10.352c-6.6 1.193-12.562 2.525-13.25 2.961-.687.435-1.25 2.106-1.25 3.713 0 2.314.542 3.058 2.603 3.575 3.012.756 29.284-3.33 31.147-4.844 1.588-1.29 1.616-5.005.05-6.571-1.611-1.611-5.107-1.399-19.3 1.166m1.5 12.829c-6.325 1.111-12.062 2.477-12.75 3.035-1.744 1.416-1.56 5.267.326 6.833 1.307 1.085 4.078.917 16.25-.984 15.953-2.49 18.902-3.922 17.265-8.378-1.096-2.98-6.29-3.104-21.091-.506m4.521 12.503c-7.689 1.341-14.551 2.912-15.25 3.492-1.735 1.44-1.602 5.291.236 6.816 1.216 1.009 4.347.795 16.235-1.113C592.975 431.609 597 430.09 597 427c0-1.234-3.721-5.048-4.75-4.87l-14.729 2.568"/><path fill="#6c63ff" fill-rule="evenodd" d="M477.449 156.654c-1.437 3.215-2.841 7.196-3.121 8.846-.293 1.729 3.568 23.772 9.109 52l11.088 56.5c1.426 7.269 1.672 7.691 7.973 13.69 7.917 7.537 8.284 9.737 2.7 16.213l-3.797 4.403 2.879 15.097c1.584 8.303 3.427 15.664 4.096 16.357.779.808 5.782 1.492 13.92 1.905 12.056.611 12.703.547 12.676-1.261-.016-1.047-.889-12.929-1.94-26.404-1.483-19.01-3.927-37.345-10.909-81.826l-8.999-57.327-6.059-10.173c-3.333-5.596-6.445-10.769-6.917-11.497-.569-.879-4.084-1.499-10.472-1.846l-9.616-.523-2.611 5.846M464.31 288.5c.005 3.3.192 4.529.415 2.732.222-1.797.218-4.497-.01-6-.229-1.503-.411-.032-.405 3.268m10.648 82.05c-1.062 1.281-.997 1.84.378 3.214 1.541 1.541 1.785 1.543 3.301.028 1.817-1.818 1.207-4.792-.983-4.792-.775 0-1.988.698-2.696 1.55m98.22 28.993c-15.992 2.798-18.298 4.175-14.862 8.875 1.264 1.728 1.872 1.71 15.25-.442 17.481-2.812 21.316-4.951 16.863-9.405-1.865-1.864-.65-1.932-17.251.972m1.516 12.907c-7.61 1.327-13.433 2.861-14.353 3.78-1.743 1.743-1.086 5.27 1.142 6.125 1.994.765 29.41-4.021 31.109-5.431 2.941-2.441.895-7.024-3.042-6.815-1.127.059-7.813 1.113-14.856 2.341m1.692 12.914c-14.846 2.618-17.644 4.378-13.519 8.503 1.823 1.823 2.207 1.81 16.211-.552 7.888-1.331 14.923-2.901 15.632-3.49 1.619-1.343 1.662-4.053.09-5.625-1.554-1.554-3.807-1.411-18.414 1.164"/><path fill="#e6e6e7" fill-rule="evenodd" d="M398.107 38.85C396.684 40.848 396 43.333 396 46.5c0 6.742 2.99 10.713 7.757 10.304 4.836-.415 7.41-3.994 7.41-10.304 0-6.31-2.574-9.889-7.41-10.304-2.961-.254-3.89.182-5.65 2.654m-123 141c-1.423 1.998-2.107 4.483-2.107 7.65 0 6.742 2.99 10.713 7.757 10.304 4.836-.415 7.41-3.994 7.41-10.304 0-6.31-2.574-9.889-7.41-10.304-2.961-.254-3.89.182-5.65 2.654M465 256.738c0 2.395 1.562 4.333 8.742 10.839 4.807 4.358 13.409 12.47 19.113 18.028 9.098 8.863 10.281 10.398 9.63 12.5-.785 2.535-2.655 4.684-22.182 25.506-15.573 16.605-16.507 17.816-16.12 20.9.277 2.208 3.017-.379 21.817-20.596 11.825-12.716 21.878-23.782 22.34-24.59 1.525-2.667-.214-5.902-6.126-11.399a16846.477 16846.477 0 0 1-18.275-17.04c-6.841-6.388-13.901-12.841-15.689-14.339l-3.25-2.725v2.916m-57.75 39.995c-10.102 10.834-15.251 17.1-15.252 18.561-.003 2.254 3.024 5.364 25.845 26.564 10.689 9.93 11.125 10.22 10.55 7-.44-2.46-2.722-5.459-8.531-11.215-10.413-10.316-12.316-13.969-12.316-23.643 0-9.109 2.096-13.676 10.149-22.119 4.428-4.642 5.385-6.249 5.125-8.606-.301-2.728-1.209-1.943-15.57 13.458m57.75-7.972v7.901l5.403 5.157c7.22 6.891 9.751 7.813 13.23 4.821 4.03-3.467 2.736-5.945-8.592-16.46L465 280.861v7.9m165.107-2.911c-1.423 1.998-2.107 4.483-2.107 7.65 0 6.742 2.99 10.713 7.757 10.304 4.836-.415 7.41-3.994 7.41-10.304 0-6.31-2.574-9.889-7.41-10.304-2.961-.254-3.89.182-5.65 2.654m-208.436 15.565c-.299.779-.161 2.691.307 4.25.788 2.628.856 2.524.936-1.415.089-4.392-.303-5.285-1.243-2.835m43.32 11.3c-.004 3.182-.171 8.035-.37 10.785-.199 2.75-.168 3.538.069 1.75.344-2.593.893-3.25 2.715-3.25 2.754 0 5.595-2.892 5.595-5.694 0-2.351-3.273-6.847-6.078-8.348-1.793-.959-1.923-.64-1.931 4.757"/><path fill="#fff" fill-rule="evenodd" d="m465.015 270.086.014 10.414 10.486 9.83c8.638 8.099 10.485 10.341 10.485 12.727 0 3.528-3.843 6.473-7.243 5.551-1.241-.337-4.732-2.953-7.757-5.813l-5.5-5.201-.315 3.78c-.276 3.308.254 4.388 4.25 8.66 2.511 2.684 4.565 5.525 4.565 6.312 0 2.605-3.527 5.904-6.31 5.904-2.497 0-2.69.305-2.69 4.235 0 2.33-.265 6.436-.589 9.125l-.589 4.89 5.276-5.5c2.902-3.025 8.005-8.426 11.339-12.003a5645.766 5645.766 0 0 1 13.813-14.739c9.753-10.365 9.965-11.956 2.5-18.792a1784.048 1784.048 0 0 1-24.5-22.892l-7.25-6.902.015 10.414m-47.515 22.44c-6.51 7.531-6.975 8.24-8.525 12.974-3.599 10.996-.156 21.367 10.308 31.055 3.854 3.569 7.219 6.276 7.478 6.017.259-.259-.244-5.556-1.117-11.772-.874-6.215-1.858-13.88-2.186-17.034-.329-3.154-1.016-5.993-1.528-6.309-1.249-.772-1.18-5.121.119-7.549.577-1.078.915-4.482.75-7.564l-.299-5.603-5 5.785m50.528 73.224c-2.754 3.712-5.292 7.786-5.639 9.052-.348 1.266.159 6.504 1.126 11.639 2.024 10.755 1.573 13.74-2.678 17.711L457.788 407l2.856-.004c1.571-.002 4.206-.833 5.856-1.846 2.802-1.722 24.5-31.723 24.5-33.876 0-.978-15.871-12.285-17.232-12.278-.403.002-2.986 3.042-5.74 6.754m6.334 4.75c-.972 2.531.453 4.665 2.884 4.32 1.615-.229 2.344-1.099 2.57-3.07.274-2.375-.037-2.75-2.281-2.75-1.429 0-2.857.675-3.173 1.5m98.657 18.514c-9.149 1.595-16.653 3.387-16.866 4.027-.211.634-1.637 2.579-3.167 4.323l-2.784 3.17 3.246 19.012c1.785 10.458 3.726 19.9 4.313 20.984 1.63 3.011 6.415 7.22 9.554 8.406 1.548.585 4.648 1.064 6.889 1.064 4.213 0 27.529-3.717 28.993-4.622 1.198-.74.229-8.924-4.114-34.746-2.473-14.701-4.336-23.178-5.215-23.735-1.857-1.176-2.104-1.151-20.849 2.117m-1.519 10.352c-6.6 1.193-12.562 2.525-13.25 2.961-.687.435-1.25 2.106-1.25 3.713 0 2.314.542 3.058 2.603 3.575 3.012.756 29.284-3.33 31.147-4.844 1.588-1.29 1.616-5.005.05-6.571-1.611-1.611-5.107-1.399-19.3 1.166m1.5 12.829c-6.325 1.111-12.062 2.477-12.75 3.035-1.744 1.416-1.56 5.267.326 6.833 1.307 1.085 4.078.917 16.25-.984 15.953-2.49 18.902-3.922 17.265-8.378-1.096-2.98-6.29-3.104-21.091-.506m4.521 12.503c-7.689 1.341-14.551 2.912-15.25 3.492-1.735 1.44-1.602 5.291.236 6.816 1.216 1.009 4.347.795 16.235-1.113C592.975 431.609 597 430.09 597 427c0-1.234-3.721-5.048-4.75-4.87l-14.729 2.568"/><path fill="#2f2e41" fill-rule="evenodd" d="M483.491 72.865c-4.844 2.201-10.06 7.896-10.953 11.96-.541 2.464-1.287 3.089-4.345 3.642C458.972 90.134 453 97.923 453 108.281c0 12.883 9.53 29.6 14.961 26.243.703-.434.377-1.551-.943-3.229-2.433-3.093-2.573-5.589-.414-7.381 1.346-1.117 2.066-1.066 4.478.318 1.58.907 3.057 1.339 3.281.959.225-.38.732-3.166 1.128-6.191.397-3.025 1.581-7.525 2.632-10l1.911-4.5 9.233-1.779c8.417-1.622 9.675-1.645 14.233-.261 2.75.835 6.393 1.523 8.096 1.529 4.134.015 9.359 2.724 10.357 5.371.698 1.852.972 1.535 2.038-2.36 1.745-6.375.783-15.544-2.258-21.519-3.596-7.066-6.788-9.738-11.959-10.011-2.351-.124-6.057-1.181-8.235-2.348-4.947-2.65-12.542-2.758-18.048-.257M460 158.012c-10.175 4.337-19.649 7.908-21.054 7.936-4.32.088-11.43 5.352-13.761 10.189-3.61 7.488-4.756 32.645-3.32 72.863 2.255 63.156 2.801 71.875 5.52 88.196 3.029 18.185 2.93 17.117 1.511 16.24-.794-.491-.949 3.07-.553 12.691.302 7.355.546 18.863.542 25.573-.009 12.435.517 14.703 4.341 18.737 1.621 1.709 1.849 2.921 1.328 7.063-1.442 11.475-3.53 32.226-5.079 50.486l-1.652 19.486-12.567 22.514c-6.911 12.383-16.6 30.355-21.532 39.939-8.496 16.513-8.868 17.497-7.099 18.79 1.785 1.305 1.791 1.495.134 4.381-1.599 2.787-1.608 3.205-.122 5.472 2.01 3.069 2.653 3.189 20.481 3.833l14.619.529 1.181-7.324c.65-4.028 1.947-8.701 2.882-10.384 1.637-2.948 11.575-13.893 39.7-43.722l13.2-14 5.376-45.224c2.956-24.874 5.65-44.899 5.985-44.5.335.398 6.279 20.074 13.209 43.724l12.599 43 .603 37c.615 37.8 1.12 47.13 2.601 48.045 1.045.646.127 3.37-1.949 5.782-1.449 1.682-1.386 1.967.795 3.612 1.834 1.384 2.221 2.366 1.719 4.367l-.648 2.581 11.755.029c6.465.016 14.717.317 18.337.669l6.582.64 1.3-3.139c.811-1.958 1.067-4.845.679-7.673-.477-3.482-.148-5.463 1.417-8.531 1.121-2.198 1.804-4.758 1.517-5.689-1.098-3.568-11.651-154.948-11.132-159.693.41-3.74.294-4.496-.459-3-.802 1.592-.901 1.27-.484-1.574.287-1.966-.174-7.248-1.026-11.738-.851-4.489-1.67-13.145-1.82-19.235-.262-10.727-.207-11.058 1.787-10.602 1.131.258 3.451.756 5.154 1.106l3.097.635.645-9.09c.355-5 .892-19.308 1.194-31.796.483-19.986.186-26.839-2.485-57.206-4.186-47.596-5.708-62.595-7.001-69-.61-3.025-1.311-7.975-1.557-11-.597-7.33-3.092-16.597-5.236-19.438-.954-1.266-4.665-4.366-8.245-6.891-11.682-8.236-26.429-18.264-30.236-20.559l-3.727-2.246 5.814 9.317c3.197 5.124 6.552 10.667 7.454 12.317 2.771 5.068 19.35 114.865 21.139 140 .822 11.55 1.71 23.137 1.974 25.75l.479 4.75h-5.729c-5.37 0-22.286-1.776-22.916-2.405-.157-.158-1.416-6.318-2.797-13.691-1.382-7.372-2.857-14.243-3.278-15.268-.639-1.554-3.809 1.395-19.08 17.75C472.034 340.174 463.727 349 463.646 349c-.276 0 .32-71.508.695-83.275.206-6.476.654-12.053.995-12.394.341-.341 7.229 5.632 15.307 13.274 10.91 10.323 14.54 13.252 14.117 11.395-.313-1.375-5.383-27.077-11.267-57.115l-10.696-54.615 3.525-8.135c1.939-4.474 3.222-8.106 2.852-8.071-.371.035-8.999 3.612-19.174 7.948m11.536 201.594c-.883.884-3.501 4.372-5.818 7.75-3.791 5.53-4.246 5.894-4.55 3.644-.185-1.375-.66-2.838-1.055-3.252-.394-.414-4.415-.01-8.936.897-6.606 1.324-8.134 1.963-7.785 3.252 2.881 10.654 2.899 11.969.205 15.17-2.042 2.427-2.597 4.16-2.597 8.11 0 4.336.444 5.466 3.25 8.261 2.928 2.917 4.015 3.302 10.974 3.885 8.511.713 11.18.069 14.498-3.501C473.199 400.081 492 372.786 492 371.48c0-.644-.788-1.85-1.75-2.682-2.882-2.49-15.42-10.798-16.295-10.798-.447 0-1.535.723-2.419 1.606M591.5 381.491c.55.184 2.237.607 3.75.941 1.657.365 2.781 1.294 2.829 2.337.059 1.285.223 1.367.638.318.735-1.86-2.437-4.107-5.658-4.008-1.408.043-2.109.229-1.559.412M367.916 612.189c-2.429 5.054-4.56 9.537-4.736 9.961-.346.834 42.508 22.598 47.116 23.929 2.423.7 2.924.473 3.75-1.701 3.002-7.895-.413-19.556-7.099-24.239-2.35-1.646-4.77-4.708-6.432-8.139l-2.665-5.5-10.061-.315c-7.063-.221-10.489-.743-11.497-1.75-2.659-2.659-3.944-1.47-8.376 7.754M538.5 622.711c-4.899 2.152-9.453 3.473-11.75 3.409l-3.75-.106V646.5h28c15.4 0 28-.228 28-.507 0-2.136-2.411-7.978-4.59-11.123-2.737-3.95-11.037-8.87-14.963-8.87-1.187 0-4.222-1.575-6.743-3.5s-4.949-3.456-5.394-3.402c-.446.055-4.41 1.68-8.81 3.613"/><path fill="#6c63ff" fill-rule="evenodd" d="M477.449 156.654c-1.437 3.215-2.841 7.196-3.121 8.846-.293 1.729 3.568 23.772 9.109 52l11.088 56.5c1.426 7.269 1.672 7.691 7.973 13.69 7.917 7.537 8.284 9.737 2.7 16.213l-3.797 4.403 2.879 15.097c1.584 8.303 3.427 15.664 4.096 16.357.779.808 5.782 1.492 13.92 1.905 12.056.611 12.703.547 12.676-1.261-.016-1.047-.889-12.929-1.94-26.404-1.483-19.01-3.927-37.345-10.909-81.826l-8.999-57.327-6.059-10.173c-3.333-5.596-6.445-10.769-6.917-11.497-.569-.879-4.084-1.499-10.472-1.846l-9.616-.523-2.611 5.846M464.31 288.5c.005 3.3.192 4.529.415 2.732.222-1.797.218-4.497-.01-6-.229-1.503-.411-.032-.405 3.268m10.648 82.05c-1.062 1.281-.997 1.84.378 3.214 1.541 1.541 1.785 1.543 3.301.028 1.817-1.818 1.207-4.792-.983-4.792-.775 0-1.988.698-2.696 1.55m98.22 28.993c-15.992 2.798-18.298 4.175-14.862 8.875 1.264 1.728 1.872 1.71 15.25-.442 17.481-2.812 21.316-4.951 16.863-9.405-1.865-1.864-.65-1.932-17.251.972m1.516 12.907c-7.61 1.327-13.433 2.861-14.353 3.78-1.743 1.743-1.086 5.27 1.142 6.125 1.994.765 29.41-4.021 31.109-5.431 2.941-2.441.895-7.024-3.042-6.815-1.127.059-7.813 1.113-14.856 2.341m1.692 12.914c-14.846 2.618-17.644 4.378-13.519 8.503 1.823 1.823 2.207 1.81 16.211-.552 7.888-1.331 14.923-2.901 15.632-3.49 1.619-1.343 1.662-4.053.09-5.625-1.554-1.554-3.807-1.411-18.414 1.164"/><path fill="#2f2e41" fill-rule="evenodd" d="M483.491 72.865c-4.844 2.201-10.06 7.896-10.953 11.96-.541 2.464-1.287 3.089-4.345 3.642C458.972 90.134 453 97.923 453 108.281c0 12.883 9.53 29.6 14.961 26.243.703-.434.377-1.551-.943-3.229-2.433-3.093-2.573-5.589-.414-7.381 1.346-1.117 2.066-1.066 4.478.318 1.58.907 3.057 1.339 3.281.959.225-.38.732-3.166 1.128-6.191.397-3.025 1.581-7.525 2.632-10l1.911-4.5 9.233-1.779c8.417-1.622 9.675-1.645 14.233-.261 2.75.835 6.393 1.523 8.096 1.529 4.134.015 9.359 2.724 10.357 5.371.698 1.852.972 1.535 2.038-2.36 1.745-6.375.783-15.544-2.258-21.519-3.596-7.066-6.788-9.738-11.959-10.011-2.351-.124-6.057-1.181-8.235-2.348-4.947-2.65-12.542-2.758-18.048-.257M460 158.012c-10.175 4.337-19.649 7.908-21.054 7.936-4.32.088-11.43 5.352-13.761 10.189-3.61 7.488-4.756 32.645-3.32 72.863 2.255 63.156 2.801 71.875 5.52 88.196 3.029 18.185 2.93 17.117 1.511 16.24-.794-.491-.949 3.07-.553 12.691.302 7.355.546 18.863.542 25.573-.009 12.435.517 14.703 4.341 18.737 1.621 1.709 1.849 2.921 1.328 7.063-1.442 11.475-3.53 32.226-5.079 50.486l-1.652 19.486-12.567 22.514c-6.911 12.383-16.6 30.355-21.532 39.939-8.496 16.513-8.868 17.497-7.099 18.79 1.785 1.305 1.791 1.495.134 4.381-1.599 2.787-1.608 3.205-.122 5.472 2.01 3.069 2.653 3.189 20.481 3.833l14.619.529 1.181-7.324c.65-4.028 1.947-8.701 2.882-10.384 1.637-2.948 11.575-13.893 39.7-43.722l13.2-14 5.376-45.224c2.956-24.874 5.65-44.899 5.985-44.5.335.398 6.279 20.074 13.209 43.724l12.599 43 .603 37c.615 37.8 1.12 47.13 2.601 48.045 1.045.646.127 3.37-1.949 5.782-1.449 1.682-1.386 1.967.795 3.612 1.834 1.384 2.221 2.366 1.719 4.367l-.648 2.581 11.755.029c6.465.016 14.717.317 18.337.669l6.582.64 1.3-3.139c.811-1.958 1.067-4.845.679-7.673-.477-3.482-.148-5.463 1.417-8.531 1.121-2.198 1.804-4.758 1.517-5.689-1.098-3.568-11.651-154.948-11.132-159.693.41-3.74.294-4.496-.459-3-.802 1.592-.901 1.27-.484-1.574.287-1.966-.174-7.248-1.026-11.738-.851-4.489-1.67-13.145-1.82-19.235-.262-10.727-.207-11.058 1.787-10.602 1.131.258 3.451.756 5.154 1.106l3.097.635.645-9.09c.355-5 .892-19.308 1.194-31.796.483-19.986.186-26.839-2.485-57.206-4.186-47.596-5.708-62.595-7.001-69-.61-3.025-1.311-7.975-1.557-11-.597-7.33-3.092-16.597-5.236-19.438-.954-1.266-4.665-4.366-8.245-6.891-11.682-8.236-26.429-18.264-30.236-20.559l-3.727-2.246 5.814 9.317c3.197 5.124 6.552 10.667 7.454 12.317 2.771 5.068 19.35 114.865 21.139 140 .822 11.55 1.71 23.137 1.974 25.75l.479 4.75h-5.729c-5.37 0-22.286-1.776-22.916-2.405-.157-.158-1.416-6.318-2.797-13.691-1.382-7.372-2.857-14.243-3.278-15.268-.639-1.554-3.809 1.395-19.08 17.75C472.034 340.174 463.727 349 463.646 349c-.276 0 .32-71.508.695-83.275.206-6.476.654-12.053.995-12.394.341-.341 7.229 5.632 15.307 13.274 10.91 10.323 14.54 13.252 14.117 11.395-.313-1.375-5.383-27.077-11.267-57.115l-10.696-54.615 3.525-8.135c1.939-4.474 3.222-8.106 2.852-8.071-.371.035-8.999 3.612-19.174 7.948m11.536 201.594c-.883.884-3.501 4.372-5.818 7.75-3.791 5.53-4.246 5.894-4.55 3.644-.185-1.375-.66-2.838-1.055-3.252-.394-.414-4.415-.01-8.936.897-6.606 1.324-8.134 1.963-7.785 3.252 2.881 10.654 2.899 11.969.205 15.17-2.042 2.427-2.597 4.16-2.597 8.11 0 4.336.444 5.466 3.25 8.261 2.928 2.917 4.015 3.302 10.974 3.885 8.511.713 11.18.069 14.498-3.501C473.199 400.081 492 372.786 492 371.48c0-.644-.788-1.85-1.75-2.682-2.882-2.49-15.42-10.798-16.295-10.798-.447 0-1.535.723-2.419 1.606M591.5 381.491c.55.184 2.237.607 3.75.941 1.657.365 2.781 1.294 2.829 2.337.059 1.285.223 1.367.638.318.735-1.86-2.437-4.107-5.658-4.008-1.408.043-2.109.229-1.559.412M367.916 612.189c-2.429 5.054-4.56 9.537-4.736 9.961-.346.834 42.508 22.598 47.116 23.929 2.423.7 2.924.473 3.75-1.701 3.002-7.895-.413-19.556-7.099-24.239-2.35-1.646-4.77-4.708-6.432-8.139l-2.665-5.5-10.061-.315c-7.063-.221-10.489-.743-11.497-1.75-2.659-2.659-3.944-1.47-8.376 7.754M538.5 622.711c-4.899 2.152-9.453 3.473-11.75 3.409l-3.75-.106V646.5h28c15.4 0 28-.228 28-.507 0-2.136-2.411-7.978-4.59-11.123-2.737-3.95-11.037-8.87-14.963-8.87-1.187 0-4.222-1.575-6.743-3.5s-4.949-3.456-5.394-3.402c-.446.055-4.41 1.68-8.81 3.613"/><path fill="#ffb8b8" fill-rule="evenodd" d="M491 103c-1.375.44-4.213.845-6.306.9-3.534.093-3.953.432-5.857 4.737-1.128 2.55-2.294 7.314-2.591 10.587-.548 6.044-2.207 8.215-4.513 5.909-.623-.623-2.168-1.133-3.433-1.133-1.861 0-2.3.543-2.3 2.845 0 1.665.899 3.635 2.167 4.75l2.166 1.905-1.876-3.24c-1.388-2.396-1.584-3.533-.754-4.363 1.375-1.375 3.619-.178 2.947 1.574-.268.697.344 2.634 1.359 4.304 1.966 3.231 1.577 4.957-.691 3.074-2.227-1.848-2.801-.044-.729 2.287 3.404 3.825 11.321 6.844 17.983 6.854 8.894.015 15.008-2.439 20.993-8.425 5.82-5.82 8.435-12.075 8.435-20.178 0-7.969-1.245-10.387-5.35-10.387-1.869 0-5.312-.675-7.65-1.5-4.549-1.605-9.948-1.798-14-.5m-40.681 266.362c-2.849.626-5.458 1.422-5.797 1.769-.34.347.049 3.497.863 7 1.475 6.35 1.472 6.377-1.033 9.007-5.297 5.563-3.433 14.7 3.759 18.419 9.066 4.688 19.176-4.584 16.075-14.742-.557-1.823-1.768-7.702-2.692-13.065-1.89-10.975-1.325-10.551-11.175-8.388m96.126 19.074c.052 6.29.409 11.751.794 12.136 1.281 1.282 5.908-2.68 7.474-6.4 1.26-2.992 1.337-4.461.417-7.936-.622-2.346-1.13-5.11-1.13-6.143 0-2.031-1.856-3.093-5.407-3.093-2.198 0-2.241.226-2.148 11.436M382.674 593.619l-5.533 11.119 5.18.622c2.848.343 7.429.616 10.179.607l5-.016 7.319-11.073c4.026-6.09 7.176-11.214 7-11.386-.175-.173-5.56-.466-11.965-.653l-11.647-.339-5.533 11.119M528 616c0 5.5.222 10 .493 10s4.546-1.622 9.5-3.605c8.155-3.264 9.008-3.855 9.018-6.25.006-1.455.29-4.332.631-6.395l.62-3.75H528v10"/><path fill="#35345e" fill-rule="evenodd" d="M464.365 268.5c.003 5.5.171 7.622.373 4.716.203-2.905.201-7.405-.004-10-.206-2.594-.371-.216-.369 5.284M535 340.956c0 .526-3.263 1.112-7.25 1.301l-7.25.346 7.75.198c6.311.162 7.75-.08 7.75-1.301 0-.825-.225-1.5-.5-1.5s-.5.43-.5.956m45 43.112a2492.828 2492.828 0 0 1-17.25 2.983c-4.607.771-6.75 1.577-6.75 2.539 0 1.773-1.516 1.898 18.893-1.56 12.387-2.099 17.928-2.661 19.25-1.953 1.021.546 1.857 1.232 1.857 1.524 0 .292 2.039 12.704 4.531 27.581 2.491 14.878 4.268 27.875 3.948 28.883-.72 2.269-1.622 2.556-15.653 4.972-13.972 2.405-17.249 2.416-22.326.073-8.605-3.971-10.348-7.783-14.113-30.86-1.947-11.935-3.211-17.25-4.101-17.25-.707 0-1.295.337-1.306.75-.01.413 1.854 12.225 4.142 26.25 2.844 17.427 4.671 26.045 5.77 27.222 1.518 1.626 2.894 1.505 24.608-2.16 12.65-2.136 23.788-4.196 24.75-4.579 1.056-.421 1.744-1.745 1.735-3.34-.036-6.225-9.968-61.516-11.189-62.291-1.79-1.135-4.659-.927-16.796 1.216M396.25 582.739c3.163.198 8.337.198 11.5 0 3.163-.198.575-.361-5.75-.361s-8.913.163-5.75.361m141 64.009c7.563.169 19.938.169 27.5 0 7.563-.17 1.375-.309-13.75-.309s-21.312.139-13.75.309"/></svg>